{"title":"Unexpected.2015.WEBRip.XViD-Sorrow","uid":12160144,"size":736235947,"categoryP":"video","categoryS":"movies","magnet":"?xt=urn:btih:e98c96d3ad6a184e92ae0eb7fbee7713986d3423&amp;dn=Unexpected.2015.WEBRip.XViD-Sorrow&amp;tr=udp%3A%2F%2Ftracker.openbittorrent.com%3A80&amp;tr=udp%3A%2F%2Fopen.demonii.com%3A1337&amp;tr=udp%3A%2F%2Ftracker.coppersurfer.tk%3A6969&amp;tr=udp%3A%2F%2Fexodus.desync.com%3A6969","seeders":1,"leechers":0,"uploader":null,"files":2,"time":1437876583,"description":"Unexpected 2015 WEBRip XViD-Sorrow\n\nGeneral\nComplete name                            : Unexpected.2015.WEBRip.XViD-Sorrow.avi\nFormat                                   : AVI\nFormat/Info                              : Audio Video Interleave\nFile size                                : 702 MiB\nDuration                                 : 1h 25mn\nOverall bit rate                         : 1 151 Kbps\nWriting application                      : Lavf55.19.104\n\nVideo\nID                                       : 0\nFormat                                   : MPEG-4 Visual\nFormat profile                           : Simple@L3\nFormat settings, BVOP                    : No\nFormat settings, QPel                    : No\nFormat settings, GMC                     : No warppoints\nFormat settings, Matrix                  : Default (H.263)\nCodec ID                                 : XVID\nCodec ID/Hint                            : XviD\nDuration                                 : 1h 25mn\nBit rate                                 : 1 011 Kbps\nWidth                                    : 720 pixels\nHeight                                   : 400 pixels\nDisplay aspect ratio                     : 16:9\nFrame rate                               : 23.976 fps\nColor space                              : YUV\nChroma subsampling                       : 4:2:0\nBit depth                                : 8 bits\nScan type                                : Progressive\nCompression mode                         : Lossy\nBits/(Pixel*Frame)                       : 0.146\nStream size                              : 616 MiB (88%)\nWriting library                          : XviD 64\n\nAudio\nID                                       : 1\nFormat                                   : MPEG Audio\nFormat version                           : Version 1\nFormat profile                           : Layer 3\nMode                                     : Joint stereo\nMode extension                           : MS Stereo\nCodec ID                                 : 55\nCodec ID/Hint                            : MP3\nDuration                                 : 1h 25mn\nBit rate mode                            : Constant\nBit rate                                 : 128 Kbps\nChannel count                            : 2 channels\nSampling rate                            : 48.0 KHz\nCompression mode                         : Lossy\nStream size                              : 78.1 MiB (11%)\nAlignment                                : Aligned on interleaves\nInterleave, duration                     : 24 ms (0.58 video frame)\n\n\n\nComedy:Drama\n\nAn inner-city high school teacher discovers she is pregnant at the same time as one of her most promising students and the two develop an unlikely friendship while struggling to navigate their unexpected pregnancies.\n\n\nDirector: Kris Swanberg \n\nWriters: Megan Mercier, Kris Swanberg \n\nStars: Cobie Smulders, Anders Holm, Gail Bean \n &lt;a href=&quot;\nhttp://www.imdb.com/title/tt4145304/&quot; rel=&quot;nofollow&quot; target=&quot;_NEW&quot;&gt;\nhttp://www.imdb.com/title/tt4145304/&lt;/a&gt;","torrent":{"xt":"urn:btih:e98c96d3ad6a184e92ae0eb7fbee7713986d3423","amp;dn":"Unexpected.2015.WEBRip.XViD-Sorrow","amp;tr":["udp%3A%2F%2Ftracker.openbittorrent.com%3A80","udp%3A%2F%2Fopen.demonii.com%3A1337","udp%3A%2F%2Ftracker.coppersurfer.tk%3A6969","udp%3A%2F%2Fexodus.desync.com%3A6969"],"infoHash":"e98c96d3ad6a184e92ae0eb7fbee7713986d3423","infoHashBuffer":{"type":"Buffer","data":[233,140,150,211,173,106,24,78,146,174,14,183,251,238,119,19,152,109,52,35]},"announce":[],"urlList":[]}}